<?xml version="1.0" encoding="UTF-8"?>
<!DOCTYPE svg PUBLIC "-//W3C//DTD SVG 1.1//EN" "http://www.w3.org/Graphics/SVG/1.1/DTD/svg11.dtd">
<svg version="1.1" xmlns="http://www.w3.org/2000/svg" xmlns:xlink="http://www.w3.org/1999/xlink" x="0px" y="0px" width="612" height="792" viewBox="0, 0, 612, 792">
  <g id="Layer 1" display="none">
    <g>
      <path d="M106.299,127.559 C86.73,127.559 70.866,111.695 70.866,92.126 C70.866,72.557 86.73,56.693 106.299,56.693 C125.868,56.693 141.732,72.557 141.732,92.126 C141.732,111.695 125.868,127.559 106.299,127.559 z" fill-opacity="0" stroke="#000000" stroke-width="30"/>
      <g>
        <path d="M106.299,56.693 L106.299,92.126 L141.732,92.126 C141.732,72.557 125.868,56.693 106.299,56.693" fill="#000000"/>
        <path d="M106.299,56.693 L106.299,92.126 L141.732,92.126 C141.732,72.557 125.868,56.693 106.299,56.693" fill-opacity="0" stroke="#000000" stroke-width="30"/>
      </g>
      <g>
        <path d="M106.299,127.559 L106.299,92.126 L70.866,92.126 C70.866,111.695 86.73,127.559 106.299,127.559" fill="#000000"/>
        <path d="M106.299,127.559 L106.299,92.126 L70.866,92.126 C70.866,111.695 86.73,127.559 106.299,127.559" fill-opacity="0" stroke="#000000" stroke-width="30"/>
      </g>
    </g>
    <g>
      <path d="M206.079,128.693 C186.196,128.693 170.079,112.575 170.079,92.693 C170.079,72.811 186.196,56.693 206.079,56.693 C225.961,56.693 242.079,72.811 242.079,92.693 C242.079,112.575 225.961,128.693 206.079,128.693 z" fill-opacity="0" stroke="#000000" stroke-width="30"/>
      <g>
        <path d="M206.079,56.693 L206.079,92.693 L242.079,92.693 C242.079,72.811 225.961,56.693 206.079,56.693" fill="#000000"/>
        <path d="M206.079,56.693 L206.079,92.693 L242.079,92.693 C242.079,72.811 225.961,56.693 206.079,56.693" fill-opacity="0" stroke="#000000" stroke-width="30"/>
      </g>
      <g>
        <path d="M206.079,128.693 L206.079,92.693 L170.079,92.693 C170.079,112.575 186.196,128.693 206.079,128.693" fill="#000000"/>
        <path d="M206.079,128.693 L206.079,92.693 L170.079,92.693 C170.079,112.575 186.196,128.693 206.079,128.693" fill-opacity="0" stroke="#000000" stroke-width="30"/>
      </g>
    </g>
    <g>
      <path d="M305.291,128.693 C285.409,128.693 269.291,112.575 269.291,92.693 C269.291,72.811 285.409,56.693 305.291,56.693 C325.174,56.693 341.291,72.811 341.291,92.693 C341.291,112.575 325.174,128.693 305.291,128.693 z" fill-opacity="0" stroke="#000000" stroke-width="30"/>
      <g>
        <path d="M305.291,56.693 L305.291,92.693 L341.291,92.693 C341.291,72.811 325.174,56.693 305.291,56.693" fill="#000000"/>
        <path d="M305.291,56.693 L305.291,92.693 L341.291,92.693 C341.291,72.811 325.174,56.693 305.291,56.693" fill-opacity="0" stroke="#000000" stroke-width="30"/>
      </g>
      <g>
        <path d="M305.291,128.693 L305.291,92.693 L269.291,92.693 C269.291,112.575 285.409,128.693 305.291,128.693" fill="#000000"/>
        <path d="M305.291,128.693 L305.291,92.693 L269.291,92.693 C269.291,112.575 285.409,128.693 305.291,128.693" fill-opacity="0" stroke="#000000" stroke-width="30"/>
      </g>
    </g>
    <g>
      <path d="M404.504,128.693 C384.622,128.693 368.504,112.575 368.504,92.693 C368.504,72.811 384.622,56.693 404.504,56.693 C424.386,56.693 440.504,72.811 440.504,92.693 C440.504,112.575 424.386,128.693 404.504,128.693 z" fill-opacity="0" stroke="#000000" stroke-width="30"/>
      <g>
        <path d="M404.504,56.693 L404.504,92.693 L440.504,92.693 C440.504,72.811 424.386,56.693 404.504,56.693" fill="#000000"/>
        <path d="M404.504,56.693 L404.504,92.693 L440.504,92.693 C440.504,72.811 424.386,56.693 404.504,56.693" fill-opacity="0" stroke="#000000" stroke-width="30"/>
      </g>
      <g>
        <path d="M404.504,128.693 L404.504,92.693 L368.504,92.693 C368.504,112.575 384.622,128.693 404.504,128.693" fill="#000000"/>
        <path d="M404.504,128.693 L404.504,92.693 L368.504,92.693 C368.504,112.575 384.622,128.693 404.504,128.693" fill-opacity="0" stroke="#000000" stroke-width="30"/>
      </g>
    </g>
    <g>
      <path d="M503.717,128.693 C483.834,128.693 467.717,112.575 467.717,92.693 C467.717,72.811 483.834,56.693 503.717,56.693 C523.599,56.693 539.716,72.811 539.716,92.693 C539.716,112.575 523.599,128.693 503.717,128.693 z" fill-opacity="0" stroke="#000000" stroke-width="30"/>
      <g>
        <path d="M503.717,56.693 L503.717,92.693 L539.716,92.693 C539.716,72.811 523.599,56.693 503.717,56.693" fill="#000000"/>
        <path d="M503.717,56.693 L503.717,92.693 L539.716,92.693 C539.716,72.811 523.599,56.693 503.717,56.693" fill-opacity="0" stroke="#000000" stroke-width="30"/>
      </g>
      <g>
        <path d="M503.717,128.693 L503.717,92.693 L467.717,92.693 C467.717,112.575 483.834,128.693 503.717,128.693" fill="#000000"/>
        <path d="M503.717,128.693 L503.717,92.693 L467.717,92.693 C467.717,112.575 483.834,128.693 503.717,128.693" fill-opacity="0" stroke="#000000" stroke-width="30"/>
      </g>
    </g>
    <g>
      <path d="M106.299,226.772 C86.73,226.772 70.866,210.908 70.866,191.339 C70.866,171.769 86.73,155.906 106.299,155.906 C125.868,155.906 141.732,171.769 141.732,191.339 C141.732,210.908 125.868,226.772 106.299,226.772 z" fill-opacity="0" stroke="#000000" stroke-width="30"/>
      <g>
        <path d="M106.299,155.906 L106.299,191.339 L141.732,191.339 C141.732,171.769 125.868,155.906 106.299,155.906" fill="#000000"/>
        <path d="M106.299,155.906 L106.299,191.339 L141.732,191.339 C141.732,171.769 125.868,155.906 106.299,155.906" fill-opacity="0" stroke="#000000" stroke-width="30"/>
      </g>
      <g>
        <path d="M106.299,226.772 L106.299,191.339 L70.866,191.339 C70.866,210.908 86.73,226.772 106.299,226.772" fill="#000000"/>
        <path d="M106.299,226.772 L106.299,191.339 L70.866,191.339 C70.866,210.908 86.73,226.772 106.299,226.772" fill-opacity="0" stroke="#000000" stroke-width="30"/>
      </g>
    </g>
    <g>
      <path d="M206.079,227.906 C186.196,227.906 170.079,211.788 170.079,191.906 C170.079,172.023 186.196,155.906 206.079,155.906 C225.961,155.906 242.079,172.023 242.079,191.906 C242.079,211.788 225.961,227.906 206.079,227.906 z" fill-opacity="0" stroke="#000000" stroke-width="30"/>
      <g>
        <path d="M206.079,155.906 L206.079,191.906 L242.079,191.906 C242.079,172.023 225.961,155.906 206.079,155.906" fill="#000000"/>
        <path d="M206.079,155.906 L206.079,191.906 L242.079,191.906 C242.079,172.023 225.961,155.906 206.079,155.906" fill-opacity="0" stroke="#000000" stroke-width="30"/>
      </g>
      <g>
        <path d="M206.079,227.906 L206.079,191.906 L170.079,191.906 C170.079,211.788 186.196,227.906 206.079,227.906" fill="#000000"/>
        <path d="M206.079,227.906 L206.079,191.906 L170.079,191.906 C170.079,211.788 186.196,227.906 206.079,227.906" fill-opacity="0" stroke="#000000" stroke-width="30"/>
      </g>
    </g>
    <g>
      <path d="M305.291,227.906 C285.409,227.906 269.291,211.788 269.291,191.906 C269.291,172.023 285.409,155.906 305.291,155.906 C325.174,155.906 341.291,172.023 341.291,191.906 C341.291,211.788 325.174,227.906 305.291,227.906 z" fill-opacity="0" stroke="#000000" stroke-width="30"/>
      <g>
        <path d="M305.291,155.906 L305.291,191.906 L341.291,191.906 C341.291,172.023 325.174,155.906 305.291,155.906" fill="#000000"/>
        <path d="M305.291,155.906 L305.291,191.906 L341.291,191.906 C341.291,172.023 325.174,155.906 305.291,155.906" fill-opacity="0" stroke="#000000" stroke-width="30"/>
      </g>
      <g>
        <path d="M305.291,227.906 L305.291,191.906 L269.291,191.906 C269.291,211.788 285.409,227.906 305.291,227.906" fill="#000000"/>
        <path d="M305.291,227.906 L305.291,191.906 L269.291,191.906 C269.291,211.788 285.409,227.906 305.291,227.906" fill-opacity="0" stroke="#000000" stroke-width="30"/>
      </g>
    </g>
    <g>
      <path d="M404.504,227.906 C384.622,227.906 368.504,211.788 368.504,191.906 C368.504,172.023 384.622,155.906 404.504,155.906 C424.386,155.906 440.504,172.023 440.504,191.906 C440.504,211.788 424.386,227.906 404.504,227.906 z" fill-opacity="0" stroke="#000000" stroke-width="30"/>
      <g>
        <path d="M404.504,155.906 L404.504,191.906 L440.504,191.906 C440.504,172.023 424.386,155.906 404.504,155.906" fill="#000000"/>
        <path d="M404.504,155.906 L404.504,191.906 L440.504,191.906 C440.504,172.023 424.386,155.906 404.504,155.906" fill-opacity="0" stroke="#000000" stroke-width="30"/>
      </g>
      <g>
        <path d="M404.504,227.906 L404.504,191.906 L368.504,191.906 C368.504,211.788 384.622,227.906 404.504,227.906" fill="#000000"/>
        <path d="M404.504,227.906 L404.504,191.906 L368.504,191.906 C368.504,211.788 384.622,227.906 404.504,227.906" fill-opacity="0" stroke="#000000" stroke-width="30"/>
      </g>
    </g>
    <g>
      <path d="M503.717,227.906 C483.834,227.906 467.717,211.788 467.717,191.906 C467.717,172.023 483.834,155.906 503.717,155.906 C523.599,155.906 539.716,172.023 539.716,191.906 C539.716,211.788 523.599,227.906 503.717,227.906 z" fill-opacity="0" stroke="#000000" stroke-width="30"/>
      <g>
        <path d="M503.717,155.906 L503.717,191.906 L539.716,191.906 C539.716,172.023 523.599,155.906 503.717,155.906" fill="#000000"/>
        <path d="M503.717,155.906 L503.717,191.906 L539.716,191.906 C539.716,172.023 523.599,155.906 503.717,155.906" fill-opacity="0" stroke="#000000" stroke-width="30"/>
      </g>
      <g>
        <path d="M503.717,227.906 L503.717,191.906 L467.717,191.906 C467.717,211.788 483.834,227.906 503.717,227.906" fill="#000000"/>
        <path d="M503.717,227.906 L503.717,191.906 L467.717,191.906 C467.717,211.788 483.834,227.906 503.717,227.906" fill-opacity="0" stroke="#000000" stroke-width="30"/>
      </g>
    </g>
    <g>
      <path d="M106.299,325.984 C86.73,325.984 70.866,310.12 70.866,290.551 C70.866,270.982 86.73,255.118 106.299,255.118 C125.868,255.118 141.732,270.982 141.732,290.551 C141.732,310.12 125.868,325.984 106.299,325.984 z" fill-opacity="0" stroke="#000000" stroke-width="30"/>
      <g>
        <path d="M106.299,255.118 L106.299,290.551 L141.732,290.551 C141.732,270.982 125.868,255.118 106.299,255.118" fill="#000000"/>
        <path d="M106.299,255.118 L106.299,290.551 L141.732,290.551 C141.732,270.982 125.868,255.118 106.299,255.118" fill-opacity="0" stroke="#000000" stroke-width="30"/>
      </g>
      <g>
        <path d="M106.299,325.984 L106.299,290.551 L70.866,290.551 C70.866,310.12 86.73,325.984 106.299,325.984" fill="#000000"/>
        <path d="M106.299,325.984 L106.299,290.551 L70.866,290.551 C70.866,310.12 86.73,325.984 106.299,325.984" fill-opacity="0" stroke="#000000" stroke-width="30"/>
      </g>
    </g>
    <g>
      <path d="M206.079,327.118 C186.196,327.118 170.079,311 170.079,291.118 C170.079,271.236 186.196,255.118 206.079,255.118 C225.961,255.118 242.079,271.236 242.079,291.118 C242.079,311 225.961,327.118 206.079,327.118 z" fill-opacity="0" stroke="#000000" stroke-width="30"/>
      <g>
        <path d="M206.079,255.118 L206.079,291.118 L242.079,291.118 C242.079,271.236 225.961,255.118 206.079,255.118" fill="#000000"/>
        <path d="M206.079,255.118 L206.079,291.118 L242.079,291.118 C242.079,271.236 225.961,255.118 206.079,255.118" fill-opacity="0" stroke="#000000" stroke-width="30"/>
      </g>
      <g>
        <path d="M206.079,327.118 L206.079,291.118 L170.079,291.118 C170.079,311 186.196,327.118 206.079,327.118" fill="#000000"/>
        <path d="M206.079,327.118 L206.079,291.118 L170.079,291.118 C170.079,311 186.196,327.118 206.079,327.118" fill-opacity="0" stroke="#000000" stroke-width="30"/>
      </g>
    </g>
    <g>
      <path d="M305.291,327.118 C285.409,327.118 269.291,311 269.291,291.118 C269.291,271.236 285.409,255.118 305.291,255.118 C325.174,255.118 341.291,271.236 341.291,291.118 C341.291,311 325.174,327.118 305.291,327.118 z" fill-opacity="0" stroke="#000000" stroke-width="30"/>
      <g>
        <path d="M305.291,255.118 L305.291,291.118 L341.291,291.118 C341.291,271.236 325.174,255.118 305.291,255.118" fill="#000000"/>
        <path d="M305.291,255.118 L305.291,291.118 L341.291,291.118 C341.291,271.236 325.174,255.118 305.291,255.118" fill-opacity="0" stroke="#000000" stroke-width="30"/>
      </g>
      <g>
        <path d="M305.291,327.118 L305.291,291.118 L269.291,291.118 C269.291,311 285.409,327.118 305.291,327.118" fill="#000000"/>
        <path d="M305.291,327.118 L305.291,291.118 L269.291,291.118 C269.291,311 285.409,327.118 305.291,327.118" fill-opacity="0" stroke="#000000" stroke-width="30"/>
      </g>
    </g>
    <g>
      <path d="M404.504,327.118 C384.622,327.118 368.504,311 368.504,291.118 C368.504,271.236 384.622,255.118 404.504,255.118 C424.386,255.118 440.504,271.236 440.504,291.118 C440.504,311 424.386,327.118 404.504,327.118 z" fill-opacity="0" stroke="#000000" stroke-width="30"/>
      <g>
        <path d="M404.504,255.118 L404.504,291.118 L440.504,291.118 C440.504,271.236 424.386,255.118 404.504,255.118" fill="#000000"/>
        <path d="M404.504,255.118 L404.504,291.118 L440.504,291.118 C440.504,271.236 424.386,255.118 404.504,255.118" fill-opacity="0" stroke="#000000" stroke-width="30"/>
      </g>
      <g>
        <path d="M404.504,327.118 L404.504,291.118 L368.504,291.118 C368.504,311 384.622,327.118 404.504,327.118" fill="#000000"/>
        <path d="M404.504,327.118 L404.504,291.118 L368.504,291.118 C368.504,311 384.622,327.118 404.504,327.118" fill-opacity="0" stroke="#000000" stroke-width="30"/>
      </g>
    </g>
    <g>
      <path d="M503.717,327.118 C483.834,327.118 467.717,311 467.717,291.118 C467.717,271.236 483.834,255.118 503.717,255.118 C523.599,255.118 539.716,271.236 539.716,291.118 C539.716,311 523.599,327.118 503.717,327.118 z" fill-opacity="0" stroke="#000000" stroke-width="30"/>
      <g>
        <path d="M503.717,255.118 L503.717,291.118 L539.716,291.118 C539.716,271.236 523.599,255.118 503.717,255.118" fill="#000000"/>
        <path d="M503.717,255.118 L503.717,291.118 L539.716,291.118 C539.716,271.236 523.599,255.118 503.717,255.118" fill-opacity="0" stroke="#000000" stroke-width="30"/>
      </g>
      <g>
        <path d="M503.717,327.118 L503.717,291.118 L467.717,291.118 C467.717,311 483.834,327.118 503.717,327.118" fill="#000000"/>
        <path d="M503.717,327.118 L503.717,291.118 L467.717,291.118 C467.717,311 483.834,327.118 503.717,327.118" fill-opacity="0" stroke="#000000" stroke-width="30"/>
      </g>
    </g>
    <g>
      <path d="M106.299,425.197 C86.73,425.197 70.866,409.333 70.866,389.764 C70.866,370.195 86.73,354.331 106.299,354.331 C125.868,354.331 141.732,370.195 141.732,389.764 C141.732,409.333 125.868,425.197 106.299,425.197 z" fill-opacity="0" stroke="#000000" stroke-width="30"/>
      <g>
        <path d="M106.299,354.331 L106.299,389.764 L141.732,389.764 C141.732,370.195 125.868,354.331 106.299,354.331" fill="#000000"/>
        <path d="M106.299,354.331 L106.299,389.764 L141.732,389.764 C141.732,370.195 125.868,354.331 106.299,354.331" fill-opacity="0" stroke="#000000" stroke-width="30"/>
      </g>
      <g>
        <path d="M106.299,425.197 L106.299,389.764 L70.866,389.764 C70.866,409.333 86.73,425.197 106.299,425.197" fill="#000000"/>
        <path d="M106.299,425.197 L106.299,389.764 L70.866,389.764 C70.866,409.333 86.73,425.197 106.299,425.197" fill-opacity="0" stroke="#000000" stroke-width="30"/>
      </g>
    </g>
    <g>
      <path d="M206.079,426.331 C186.196,426.331 170.079,410.213 170.079,390.331 C170.079,370.448 186.196,354.331 206.079,354.331 C225.961,354.331 242.079,370.448 242.079,390.331 C242.079,410.213 225.961,426.331 206.079,426.331 z" fill-opacity="0" stroke="#000000" stroke-width="30"/>
      <g>
        <path d="M206.079,354.331 L206.079,390.331 L242.079,390.331 C242.079,370.448 225.961,354.331 206.079,354.331" fill="#000000"/>
        <path d="M206.079,354.331 L206.079,390.331 L242.079,390.331 C242.079,370.448 225.961,354.331 206.079,354.331" fill-opacity="0" stroke="#000000" stroke-width="30"/>
      </g>
      <g>
        <path d="M206.079,426.331 L206.079,390.331 L170.079,390.331 C170.079,410.213 186.196,426.331 206.079,426.331" fill="#000000"/>
        <path d="M206.079,426.331 L206.079,390.331 L170.079,390.331 C170.079,410.213 186.196,426.331 206.079,426.331" fill-opacity="0" stroke="#000000" stroke-width="30"/>
      </g>
    </g>
    <g>
      <path d="M305.291,426.331 C285.409,426.331 269.291,410.213 269.291,390.331 C269.291,370.448 285.409,354.331 305.291,354.331 C325.174,354.331 341.291,370.448 341.291,390.331 C341.291,410.213 325.174,426.331 305.291,426.331 z" fill-opacity="0" stroke="#000000" stroke-width="30"/>
      <g>
        <path d="M305.291,354.331 L305.291,390.331 L341.291,390.331 C341.291,370.448 325.174,354.331 305.291,354.331" fill="#000000"/>
        <path d="M305.291,354.331 L305.291,390.331 L341.291,390.331 C341.291,370.448 325.174,354.331 305.291,354.331" fill-opacity="0" stroke="#000000" stroke-width="30"/>
      </g>
      <g>
        <path d="M305.291,426.331 L305.291,390.331 L269.291,390.331 C269.291,410.213 285.409,426.331 305.291,426.331" fill="#000000"/>
        <path d="M305.291,426.331 L305.291,390.331 L269.291,390.331 C269.291,410.213 285.409,426.331 305.291,426.331" fill-opacity="0" stroke="#000000" stroke-width="30"/>
      </g>
    </g>
    <g>
      <path d="M404.504,426.331 C384.622,426.331 368.504,410.213 368.504,390.331 C368.504,370.448 384.622,354.331 404.504,354.331 C424.386,354.331 440.504,370.448 440.504,390.331 C440.504,410.213 424.386,426.331 404.504,426.331 z" fill-opacity="0" stroke="#000000" stroke-width="30"/>
      <g>
        <path d="M404.504,354.331 L404.504,390.331 L440.504,390.331 C440.504,370.448 424.386,354.331 404.504,354.331" fill="#000000"/>
        <path d="M404.504,354.331 L404.504,390.331 L440.504,390.331 C440.504,370.448 424.386,354.331 404.504,354.331" fill-opacity="0" stroke="#000000" stroke-width="30"/>
      </g>
      <g>
        <path d="M404.504,426.331 L404.504,390.331 L368.504,390.331 C368.504,410.213 384.622,426.331 404.504,426.331" fill="#000000"/>
        <path d="M404.504,426.331 L404.504,390.331 L368.504,390.331 C368.504,410.213 384.622,426.331 404.504,426.331" fill-opacity="0" stroke="#000000" stroke-width="30"/>
      </g>
    </g>
    <g>
      <path d="M503.717,426.331 C483.834,426.331 467.717,410.213 467.717,390.331 C467.717,370.448 483.834,354.331 503.717,354.331 C523.599,354.331 539.716,370.448 539.716,390.331 C539.716,410.213 523.599,426.331 503.717,426.331 z" fill-opacity="0" stroke="#000000" stroke-width="30"/>
      <g>
        <path d="M503.717,354.331 L503.717,390.331 L539.716,390.331 C539.716,370.448 523.599,354.331 503.717,354.331" fill="#000000"/>
        <path d="M503.717,354.331 L503.717,390.331 L539.716,390.331 C539.716,370.448 523.599,354.331 503.717,354.331" fill-opacity="0" stroke="#000000" stroke-width="30"/>
      </g>
      <g>
        <path d="M503.717,426.331 L503.717,390.331 L467.717,390.331 C467.717,410.213 483.834,426.331 503.717,426.331" fill="#000000"/>
        <path d="M503.717,426.331 L503.717,390.331 L467.717,390.331 C467.717,410.213 483.834,426.331 503.717,426.331" fill-opacity="0" stroke="#000000" stroke-width="30"/>
      </g>
    </g>
    <g>
      <path d="M106.299,524.409 C86.73,524.409 70.866,508.546 70.866,488.976 C70.866,469.407 86.73,453.543 106.299,453.543 C125.868,453.543 141.732,469.407 141.732,488.976 C141.732,508.546 125.868,524.409 106.299,524.409 z" fill-opacity="0" stroke="#000000" stroke-width="30"/>
      <g>
        <path d="M106.299,453.543 L106.299,488.976 L141.732,488.976 C141.732,469.407 125.868,453.543 106.299,453.543" fill="#000000"/>
        <path d="M106.299,453.543 L106.299,488.976 L141.732,488.976 C141.732,469.407 125.868,453.543 106.299,453.543" fill-opacity="0" stroke="#000000" stroke-width="30"/>
      </g>
      <g>
        <path d="M106.299,524.409 L106.299,488.976 L70.866,488.976 C70.866,508.546 86.73,524.409 106.299,524.409" fill="#000000"/>
        <path d="M106.299,524.409 L106.299,488.976 L70.866,488.976 C70.866,508.546 86.73,524.409 106.299,524.409" fill-opacity="0" stroke="#000000" stroke-width="30"/>
      </g>
    </g>
    <g>
      <path d="M206.079,525.543 C186.196,525.543 170.079,509.426 170.079,489.543 C170.079,469.661 186.196,453.543 206.079,453.543 C225.961,453.543 242.079,469.661 242.079,489.543 C242.079,509.426 225.961,525.543 206.079,525.543 z" fill-opacity="0" stroke="#000000" stroke-width="30"/>
      <g>
        <path d="M206.079,453.543 L206.079,489.543 L242.079,489.543 C242.079,469.661 225.961,453.543 206.079,453.543" fill="#000000"/>
        <path d="M206.079,453.543 L206.079,489.543 L242.079,489.543 C242.079,469.661 225.961,453.543 206.079,453.543" fill-opacity="0" stroke="#000000" stroke-width="30"/>
      </g>
      <g>
        <path d="M206.079,525.543 L206.079,489.543 L170.079,489.543 C170.079,509.426 186.196,525.543 206.079,525.543" fill="#000000"/>
        <path d="M206.079,525.543 L206.079,489.543 L170.079,489.543 C170.079,509.426 186.196,525.543 206.079,525.543" fill-opacity="0" stroke="#000000" stroke-width="30"/>
      </g>
    </g>
    <g>
      <path d="M305.291,525.543 C285.409,525.543 269.291,509.426 269.291,489.543 C269.291,469.661 285.409,453.543 305.291,453.543 C325.174,453.543 341.291,469.661 341.291,489.543 C341.291,509.426 325.174,525.543 305.291,525.543 z" fill-opacity="0" stroke="#000000" stroke-width="30"/>
      <g>
        <path d="M305.291,453.543 L305.291,489.543 L341.291,489.543 C341.291,469.661 325.174,453.543 305.291,453.543" fill="#000000"/>
        <path d="M305.291,453.543 L305.291,489.543 L341.291,489.543 C341.291,469.661 325.174,453.543 305.291,453.543" fill-opacity="0" stroke="#000000" stroke-width="30"/>
      </g>
      <g>
        <path d="M305.291,525.543 L305.291,489.543 L269.291,489.543 C269.291,509.426 285.409,525.543 305.291,525.543" fill="#000000"/>
        <path d="M305.291,525.543 L305.291,489.543 L269.291,489.543 C269.291,509.426 285.409,525.543 305.291,525.543" fill-opacity="0" stroke="#000000" stroke-width="30"/>
      </g>
    </g>
    <g>
      <path d="M404.504,525.543 C384.622,525.543 368.504,509.426 368.504,489.543 C368.504,469.661 384.622,453.543 404.504,453.543 C424.386,453.543 440.504,469.661 440.504,489.543 C440.504,509.426 424.386,525.543 404.504,525.543 z" fill-opacity="0" stroke="#000000" stroke-width="30"/>
      <g>
        <path d="M404.504,453.543 L404.504,489.543 L440.504,489.543 C440.504,469.661 424.386,453.543 404.504,453.543" fill="#000000"/>
        <path d="M404.504,453.543 L404.504,489.543 L440.504,489.543 C440.504,469.661 424.386,453.543 404.504,453.543" fill-opacity="0" stroke="#000000" stroke-width="30"/>
      </g>
      <g>
        <path d="M404.504,525.543 L404.504,489.543 L368.504,489.543 C368.504,509.426 384.622,525.543 404.504,525.543" fill="#000000"/>
        <path d="M404.504,525.543 L404.504,489.543 L368.504,489.543 C368.504,509.426 384.622,525.543 404.504,525.543" fill-opacity="0" stroke="#000000" stroke-width="30"/>
      </g>
    </g>
    <g>
      <path d="M503.717,525.543 C483.834,525.543 467.717,509.426 467.717,489.543 C467.717,469.661 483.834,453.543 503.717,453.543 C523.599,453.543 539.716,469.661 539.716,489.543 C539.716,509.426 523.599,525.543 503.717,525.543 z" fill-opacity="0" stroke="#000000" stroke-width="30"/>
      <g>
        <path d="M503.717,453.543 L503.717,489.543 L539.716,489.543 C539.716,469.661 523.599,453.543 503.717,453.543" fill="#000000"/>
        <path d="M503.717,453.543 L503.717,489.543 L539.716,489.543 C539.716,469.661 523.599,453.543 503.717,453.543" fill-opacity="0" stroke="#000000" stroke-width="30"/>
      </g>
      <g>
        <path d="M503.717,525.543 L503.717,489.543 L467.717,489.543 C467.717,509.426 483.834,525.543 503.717,525.543" fill="#000000"/>
        <path d="M503.717,525.543 L503.717,489.543 L467.717,489.543 C467.717,509.426 483.834,525.543 503.717,525.543" fill-opacity="0" stroke="#000000" stroke-width="30"/>
      </g>
    </g>
    <g>
      <path d="M106.299,623.622 C86.73,623.622 70.866,607.758 70.866,588.189 C70.866,568.62 86.73,552.756 106.299,552.756 C125.868,552.756 141.732,568.62 141.732,588.189 C141.732,607.758 125.868,623.622 106.299,623.622 z" fill-opacity="0" stroke="#000000" stroke-width="30"/>
      <g>
        <path d="M106.299,552.756 L106.299,588.189 L141.732,588.189 C141.732,568.62 125.868,552.756 106.299,552.756" fill="#000000"/>
        <path d="M106.299,552.756 L106.299,588.189 L141.732,588.189 C141.732,568.62 125.868,552.756 106.299,552.756" fill-opacity="0" stroke="#000000" stroke-width="30"/>
      </g>
      <g>
        <path d="M106.299,623.622 L106.299,588.189 L70.866,588.189 C70.866,607.758 86.73,623.622 106.299,623.622" fill="#000000"/>
        <path d="M106.299,623.622 L106.299,588.189 L70.866,588.189 C70.866,607.758 86.73,623.622 106.299,623.622" fill-opacity="0" stroke="#000000" stroke-width="30"/>
      </g>
    </g>
    <g>
      <path d="M206.079,624.756 C186.196,624.756 170.079,608.638 170.079,588.756 C170.079,568.874 186.196,552.756 206.079,552.756 C225.961,552.756 242.079,568.874 242.079,588.756 C242.079,608.638 225.961,624.756 206.079,624.756 z" fill-opacity="0" stroke="#000000" stroke-width="30"/>
      <g>
        <path d="M206.079,552.756 L206.079,588.756 L242.079,588.756 C242.079,568.874 225.961,552.756 206.079,552.756" fill="#000000"/>
        <path d="M206.079,552.756 L206.079,588.756 L242.079,588.756 C242.079,568.874 225.961,552.756 206.079,552.756" fill-opacity="0" stroke="#000000" stroke-width="30"/>
      </g>
      <g>
        <path d="M206.079,624.756 L206.079,588.756 L170.079,588.756 C170.079,608.638 186.196,624.756 206.079,624.756" fill="#000000"/>
        <path d="M206.079,624.756 L206.079,588.756 L170.079,588.756 C170.079,608.638 186.196,624.756 206.079,624.756" fill-opacity="0" stroke="#000000" stroke-width="30"/>
      </g>
    </g>
    <g>
      <path d="M305.291,624.756 C285.409,624.756 269.291,608.638 269.291,588.756 C269.291,568.874 285.409,552.756 305.291,552.756 C325.174,552.756 341.291,568.874 341.291,588.756 C341.291,608.638 325.174,624.756 305.291,624.756 z" fill-opacity="0" stroke="#000000" stroke-width="30"/>
      <g>
        <path d="M305.291,552.756 L305.291,588.756 L341.291,588.756 C341.291,568.874 325.174,552.756 305.291,552.756" fill="#000000"/>
        <path d="M305.291,552.756 L305.291,588.756 L341.291,588.756 C341.291,568.874 325.174,552.756 305.291,552.756" fill-opacity="0" stroke="#000000" stroke-width="30"/>
      </g>
      <g>
        <path d="M305.291,624.756 L305.291,588.756 L269.291,588.756 C269.291,608.638 285.409,624.756 305.291,624.756" fill="#000000"/>
        <path d="M305.291,624.756 L305.291,588.756 L269.291,588.756 C269.291,608.638 285.409,624.756 305.291,624.756" fill-opacity="0" stroke="#000000" stroke-width="30"/>
      </g>
    </g>
    <g>
      <path d="M404.504,624.756 C384.622,624.756 368.504,608.638 368.504,588.756 C368.504,568.874 384.622,552.756 404.504,552.756 C424.386,552.756 440.504,568.874 440.504,588.756 C440.504,608.638 424.386,624.756 404.504,624.756 z" fill-opacity="0" stroke="#000000" stroke-width="30"/>
      <g>
        <path d="M404.504,552.756 L404.504,588.756 L440.504,588.756 C440.504,568.874 424.386,552.756 404.504,552.756" fill="#000000"/>
        <path d="M404.504,552.756 L404.504,588.756 L440.504,588.756 C440.504,568.874 424.386,552.756 404.504,552.756" fill-opacity="0" stroke="#000000" stroke-width="30"/>
      </g>
      <g>
        <path d="M404.504,624.756 L404.504,588.756 L368.504,588.756 C368.504,608.638 384.622,624.756 404.504,624.756" fill="#000000"/>
        <path d="M404.504,624.756 L404.504,588.756 L368.504,588.756 C368.504,608.638 384.622,624.756 404.504,624.756" fill-opacity="0" stroke="#000000" stroke-width="30"/>
      </g>
    </g>
    <g>
      <path d="M503.717,624.756 C483.834,624.756 467.717,608.638 467.717,588.756 C467.717,568.874 483.834,552.756 503.717,552.756 C523.599,552.756 539.716,568.874 539.716,588.756 C539.716,608.638 523.599,624.756 503.717,624.756 z" fill-opacity="0" stroke="#000000" stroke-width="30"/>
      <g>
        <path d="M503.717,552.756 L503.717,588.756 L539.716,588.756 C539.716,568.874 523.599,552.756 503.717,552.756" fill="#000000"/>
        <path d="M503.717,552.756 L503.717,588.756 L539.716,588.756 C539.716,568.874 523.599,552.756 503.717,552.756" fill-opacity="0" stroke="#000000" stroke-width="30"/>
      </g>
      <g>
        <path d="M503.717,624.756 L503.717,588.756 L467.717,588.756 C467.717,608.638 483.834,624.756 503.717,624.756" fill="#000000"/>
        <path d="M503.717,624.756 L503.717,588.756 L467.717,588.756 C467.717,608.638 483.834,624.756 503.717,624.756" fill-opacity="0" stroke="#000000" stroke-width="30"/>
      </g>
    </g>
    <g>
      <path d="M106.299,722.835 C86.73,722.835 70.866,706.971 70.866,687.402 C70.866,667.832 86.73,651.969 106.299,651.969 C125.868,651.969 141.732,667.832 141.732,687.402 C141.732,706.971 125.868,722.835 106.299,722.835 z" fill-opacity="0" stroke="#000000" stroke-width="30"/>
      <g>
        <path d="M106.299,651.969 L106.299,687.402 L141.732,687.402 C141.732,667.832 125.868,651.969 106.299,651.969" fill="#000000"/>
        <path d="M106.299,651.969 L106.299,687.402 L141.732,687.402 C141.732,667.832 125.868,651.969 106.299,651.969" fill-opacity="0" stroke="#000000" stroke-width="30"/>
      </g>
      <g>
        <path d="M106.299,722.835 L106.299,687.402 L70.866,687.402 C70.866,706.971 86.73,722.835 106.299,722.835" fill="#000000"/>
        <path d="M106.299,722.835 L106.299,687.402 L70.866,687.402 C70.866,706.971 86.73,722.835 106.299,722.835" fill-opacity="0" stroke="#000000" stroke-width="30"/>
      </g>
    </g>
    <g>
      <path d="M206.079,723.969 C186.197,723.969 170.079,707.851 170.079,687.969 C170.079,668.086 186.197,651.969 206.079,651.969 C225.961,651.969 242.079,668.086 242.079,687.969 C242.079,707.851 225.961,723.969 206.079,723.969 z" fill-opacity="0" stroke="#000000" stroke-width="30"/>
      <g>
        <path d="M206.079,651.969 L206.079,687.969 L242.079,687.969 C242.079,668.086 225.961,651.969 206.079,651.969" fill="#000000"/>
        <path d="M206.079,651.969 L206.079,687.969 L242.079,687.969 C242.079,668.086 225.961,651.969 206.079,651.969" fill-opacity="0" stroke="#000000" stroke-width="30"/>
      </g>
      <g>
        <path d="M206.079,723.969 L206.079,687.969 L170.079,687.969 C170.079,707.851 186.197,723.969 206.079,723.969" fill="#000000"/>
        <path d="M206.079,723.969 L206.079,687.969 L170.079,687.969 C170.079,707.851 186.197,723.969 206.079,723.969" fill-opacity="0" stroke="#000000" stroke-width="30"/>
      </g>
    </g>
    <g>
      <path d="M305.292,723.969 C285.409,723.969 269.292,707.851 269.292,687.969 C269.292,668.086 285.409,651.969 305.292,651.969 C325.174,651.969 341.292,668.086 341.292,687.969 C341.292,707.851 325.174,723.969 305.292,723.969 z" fill-opacity="0" stroke="#000000" stroke-width="30"/>
      <g>
        <path d="M305.292,651.969 L305.292,687.969 L341.292,687.969 C341.292,668.086 325.174,651.969 305.292,651.969" fill="#000000"/>
        <path d="M305.292,651.969 L305.292,687.969 L341.292,687.969 C341.292,668.086 325.174,651.969 305.292,651.969" fill-opacity="0" stroke="#000000" stroke-width="30"/>
      </g>
      <g>
        <path d="M305.292,723.969 L305.292,687.969 L269.292,687.969 C269.292,707.851 285.409,723.969 305.292,723.969" fill="#000000"/>
        <path d="M305.292,723.969 L305.292,687.969 L269.292,687.969 C269.292,707.851 285.409,723.969 305.292,723.969" fill-opacity="0" stroke="#000000" stroke-width="30"/>
      </g>
    </g>
    <g>
      <path d="M404.504,723.969 C384.622,723.969 368.504,707.851 368.504,687.969 C368.504,668.086 384.622,651.969 404.504,651.969 C424.386,651.969 440.504,668.086 440.504,687.969 C440.504,707.851 424.386,723.969 404.504,723.969 z" fill-opacity="0" stroke="#000000" stroke-width="30"/>
      <g>
        <path d="M404.504,651.969 L404.504,687.969 L440.504,687.969 C440.504,668.086 424.386,651.969 404.504,651.969" fill="#000000"/>
        <path d="M404.504,651.969 L404.504,687.969 L440.504,687.969 C440.504,668.086 424.386,651.969 404.504,651.969" fill-opacity="0" stroke="#000000" stroke-width="30"/>
      </g>
      <g>
        <path d="M404.504,723.969 L404.504,687.969 L368.504,687.969 C368.504,707.851 384.622,723.969 404.504,723.969" fill="#000000"/>
        <path d="M404.504,723.969 L404.504,687.969 L368.504,687.969 C368.504,707.851 384.622,723.969 404.504,723.969" fill-opacity="0" stroke="#000000" stroke-width="30"/>
      </g>
    </g>
    <g>
      <path d="M503.717,723.969 C483.834,723.969 467.717,707.851 467.717,687.969 C467.717,668.086 483.834,651.969 503.717,651.969 C523.599,651.969 539.717,668.086 539.717,687.969 C539.717,707.851 523.599,723.969 503.717,723.969 z" fill-opacity="0" stroke="#000000" stroke-width="30"/>
      <g>
        <path d="M503.717,651.969 L503.717,687.969 L539.717,687.969 C539.717,668.086 523.599,651.969 503.717,651.969" fill="#000000"/>
        <path d="M503.717,651.969 L503.717,687.969 L539.717,687.969 C539.717,668.086 523.599,651.969 503.717,651.969" fill-opacity="0" stroke="#000000" stroke-width="30"/>
      </g>
      <g>
        <path d="M503.717,723.969 L503.717,687.969 L467.717,687.969 C467.717,707.851 483.834,723.969 503.717,723.969" fill="#000000"/>
        <path d="M503.717,723.969 L503.717,687.969 L467.717,687.969 C467.717,707.851 483.834,723.969 503.717,723.969" fill-opacity="0" stroke="#000000" stroke-width="30"/>
      </g>
    </g>
  </g>
  <g id="Layer 3">
    <text transform="matrix(1, 0, 0, 1, 305.291, 765.681)">
      <tspan x="-105.39" y="2.5" font-family="HelveticaNeue" font-size="18" fill="#000000">25mm Circles, 35mm Grid</tspan>
    </text>
  </g>
  <g id="Layer 2">
    <path d="M107.575,134.646 C88.006,134.646 72.142,118.782 72.142,99.213 C72.142,79.643 88.006,63.78 107.575,63.78 C127.144,63.78 143.008,79.643 143.008,99.213 C143.008,118.782 127.144,134.646 107.575,134.646 z" fill="#000000"/>
    <path d="M206.787,134.646 C187.218,134.646 171.354,118.782 171.354,99.213 C171.354,79.643 187.218,63.78 206.787,63.78 C226.357,63.78 242.22,79.643 242.22,99.213 C242.22,118.782 226.357,134.646 206.787,134.646 z" fill="#000000"/>
    <path d="M306,134.646 C286.431,134.646 270.567,118.782 270.567,99.213 C270.567,79.643 286.431,63.78 306,63.78 C325.569,63.78 341.433,79.643 341.433,99.213 C341.433,118.782 325.569,134.646 306,134.646 z" fill="#000000"/>
    <path d="M405.213,134.646 C385.643,134.646 369.78,118.782 369.78,99.213 C369.78,79.643 385.643,63.78 405.213,63.78 C424.782,63.78 440.646,79.643 440.646,99.213 C440.646,118.782 424.782,134.646 405.213,134.646 z" fill="#000000"/>
    <path d="M504.425,134.646 C484.856,134.646 468.992,118.782 468.992,99.213 C468.992,79.643 484.856,63.78 504.425,63.78 C523.994,63.78 539.858,79.643 539.858,99.213 C539.858,118.782 523.994,134.646 504.425,134.646 z" fill="#000000"/>
    <path d="M107.575,233.858 C88.006,233.858 72.142,217.994 72.142,198.425 C72.142,178.856 88.006,162.992 107.575,162.992 C127.144,162.992 143.008,178.856 143.008,198.425 C143.008,217.994 127.144,233.858 107.575,233.858 z" fill="#000000"/>
    <path d="M206.787,233.858 C187.218,233.858 171.354,217.994 171.354,198.425 C171.354,178.856 187.218,162.992 206.787,162.992 C226.357,162.992 242.22,178.856 242.22,198.425 C242.22,217.994 226.357,233.858 206.787,233.858 z" fill="#000000"/>
    <path d="M306,233.858 C286.431,233.858 270.567,217.994 270.567,198.425 C270.567,178.856 286.431,162.992 306,162.992 C325.569,162.992 341.433,178.856 341.433,198.425 C341.433,217.994 325.569,233.858 306,233.858 z" fill="#000000"/>
    <path d="M405.213,233.858 C385.643,233.858 369.78,217.994 369.78,198.425 C369.78,178.856 385.643,162.992 405.213,162.992 C424.782,162.992 440.646,178.856 440.646,198.425 C440.646,217.994 424.782,233.858 405.213,233.858 z" fill="#000000"/>
    <path d="M504.425,233.858 C484.856,233.858 468.992,217.994 468.992,198.425 C468.992,178.856 484.856,162.992 504.425,162.992 C523.994,162.992 539.858,178.856 539.858,198.425 C539.858,217.994 523.994,233.858 504.425,233.858 z" fill="#000000"/>
    <path d="M107.575,333.071 C88.006,333.071 72.142,317.207 72.142,297.638 C72.142,278.069 88.006,262.205 107.575,262.205 C127.144,262.205 143.008,278.069 143.008,297.638 C143.008,317.207 127.144,333.071 107.575,333.071 z" fill="#000000"/>
    <path d="M206.787,333.071 C187.218,333.071 171.354,317.207 171.354,297.638 C171.354,278.069 187.218,262.205 206.787,262.205 C226.357,262.205 242.22,278.069 242.22,297.638 C242.22,317.207 226.357,333.071 206.787,333.071 z" fill="#000000"/>
    <path d="M306,333.071 C286.431,333.071 270.567,317.207 270.567,297.638 C270.567,278.069 286.431,262.205 306,262.205 C325.569,262.205 341.433,278.069 341.433,297.638 C341.433,317.207 325.569,333.071 306,333.071 z" fill="#000000"/>
    <path d="M405.213,333.071 C385.643,333.071 369.78,317.207 369.78,297.638 C369.78,278.069 385.643,262.205 405.213,262.205 C424.782,262.205 440.646,278.069 440.646,297.638 C440.646,317.207 424.782,333.071 405.213,333.071 z" fill="#000000"/>
    <path d="M504.425,333.071 C484.856,333.071 468.992,317.207 468.992,297.638 C468.992,278.069 484.856,262.205 504.425,262.205 C523.994,262.205 539.858,278.069 539.858,297.638 C539.858,317.207 523.994,333.071 504.425,333.071 z" fill="#000000"/>
    <path d="M107.575,432.283 C88.006,432.283 72.142,416.42 72.142,396.85 C72.142,377.281 88.006,361.417 107.575,361.417 C127.144,361.417 143.008,377.281 143.008,396.85 C143.008,416.42 127.144,432.283 107.575,432.283 z" fill="#000000"/>
    <path d="M206.787,432.283 C187.218,432.283 171.354,416.42 171.354,396.85 C171.354,377.281 187.218,361.417 206.787,361.417 C226.357,361.417 242.22,377.281 242.22,396.85 C242.22,416.42 226.357,432.283 206.787,432.283 z" fill="#000000"/>
    <path d="M306,432.283 C286.431,432.283 270.567,416.42 270.567,396.85 C270.567,377.281 286.431,361.417 306,361.417 C325.569,361.417 341.433,377.281 341.433,396.85 C341.433,416.42 325.569,432.283 306,432.283 z" fill="#000000"/>
    <path d="M405.213,432.283 C385.643,432.283 369.78,416.42 369.78,396.85 C369.78,377.281 385.643,361.417 405.213,361.417 C424.782,361.417 440.646,377.281 440.646,396.85 C440.646,416.42 424.782,432.283 405.213,432.283 z" fill="#000000"/>
    <path d="M504.425,432.283 C484.856,432.283 468.992,416.42 468.992,396.85 C468.992,377.281 484.856,361.417 504.425,361.417 C523.994,361.417 539.858,377.281 539.858,396.85 C539.858,416.42 523.994,432.283 504.425,432.283 z" fill="#000000"/>
    <path d="M107.575,531.496 C88.006,531.496 72.142,515.632 72.142,496.063 C72.142,476.494 88.006,460.63 107.575,460.63 C127.144,460.63 143.008,476.494 143.008,496.063 C143.008,515.632 127.144,531.496 107.575,531.496 z" fill="#000000"/>
    <path d="M206.787,531.496 C187.218,531.496 171.354,515.632 171.354,496.063 C171.354,476.494 187.218,460.63 206.787,460.63 C226.357,460.63 242.22,476.494 242.22,496.063 C242.22,515.632 226.357,531.496 206.787,531.496 z" fill="#000000"/>
    <path d="M306,531.496 C286.431,531.496 270.567,515.632 270.567,496.063 C270.567,476.494 286.431,460.63 306,460.63 C325.569,460.63 341.433,476.494 341.433,496.063 C341.433,515.632 325.569,531.496 306,531.496 z" fill="#000000"/>
    <path d="M405.213,531.496 C385.643,531.496 369.78,515.632 369.78,496.063 C369.78,476.494 385.643,460.63 405.213,460.63 C424.782,460.63 440.646,476.494 440.646,496.063 C440.646,515.632 424.782,531.496 405.213,531.496 z" fill="#000000"/>
    <path d="M504.425,531.496 C484.856,531.496 468.992,515.632 468.992,496.063 C468.992,476.494 484.856,460.63 504.425,460.63 C523.994,460.63 539.858,476.494 539.858,496.063 C539.858,515.632 523.994,531.496 504.425,531.496 z" fill="#000000"/>
    <path d="M107.575,630.709 C88.006,630.709 72.142,614.845 72.142,595.276 C72.142,575.706 88.006,559.843 107.575,559.843 C127.144,559.843 143.008,575.706 143.008,595.276 C143.008,614.845 127.144,630.709 107.575,630.709 z" fill="#000000"/>
    <path d="M206.787,630.709 C187.218,630.709 171.354,614.845 171.354,595.276 C171.354,575.706 187.218,559.843 206.787,559.843 C226.357,559.843 242.22,575.706 242.22,595.276 C242.22,614.845 226.357,630.709 206.787,630.709 z" fill="#000000"/>
    <path d="M306,630.709 C286.431,630.709 270.567,614.845 270.567,595.276 C270.567,575.706 286.431,559.843 306,559.843 C325.569,559.843 341.433,575.706 341.433,595.276 C341.433,614.845 325.569,630.709 306,630.709 z" fill="#000000"/>
    <path d="M405.213,630.709 C385.643,630.709 369.78,614.845 369.78,595.276 C369.78,575.706 385.643,559.843 405.213,559.843 C424.782,559.843 440.646,575.706 440.646,595.276 C440.646,614.845 424.782,630.709 405.213,630.709 z" fill="#000000"/>
    <path d="M504.425,630.709 C484.856,630.709 468.992,614.845 468.992,595.276 C468.992,575.706 484.856,559.843 504.425,559.843 C523.994,559.843 539.858,575.706 539.858,595.276 C539.858,614.845 523.994,630.709 504.425,630.709 z" fill="#000000"/>
    <path d="M107.575,729.921 C88.006,729.921 72.142,714.057 72.142,694.488 C72.142,674.919 88.006,659.055 107.575,659.055 C127.144,659.055 143.008,674.919 143.008,694.488 C143.008,714.057 127.144,729.921 107.575,729.921 z" fill="#000000"/>
    <path d="M206.787,729.921 C187.218,729.921 171.354,714.057 171.354,694.488 C171.354,674.919 187.218,659.055 206.787,659.055 C226.357,659.055 242.22,674.919 242.22,694.488 C242.22,714.057 226.357,729.921 206.787,729.921 z" fill="#000000"/>
    <path d="M306,729.921 C286.431,729.921 270.567,714.057 270.567,694.488 C270.567,674.919 286.431,659.055 306,659.055 C325.569,659.055 341.433,674.919 341.433,694.488 C341.433,714.057 325.569,729.921 306,729.921 z" fill="#000000"/>
    <path d="M405.213,729.921 C385.643,729.921 369.78,714.057 369.78,694.488 C369.78,674.919 385.643,659.055 405.213,659.055 C424.782,659.055 440.646,674.919 440.646,694.488 C440.646,714.057 424.782,729.921 405.213,729.921 z" fill="#000000"/>
    <path d="M504.425,729.921 C484.856,729.921 468.992,714.057 468.992,694.488 C468.992,674.919 484.856,659.055 504.425,659.055 C523.994,659.055 539.858,674.919 539.858,694.488 C539.858,714.057 523.994,729.921 504.425,729.921 z" fill="#000000"/>
    <g>
      <g>
        <path d="M147.902,694.988 L164.661,694.988" fill-opacity="0" stroke="#000000" stroke-width="0.5"/>
        <path d="M164.661,696.488 L168.661,694.988 L164.661,693.488 M164.661,694.988 L168.661,694.988" fill-opacity="0" stroke="#000000" stroke-width="0.5" stroke-opacity="1"/>
      </g>
      <text fill="#000000" transform="matrix(1, 0, -0, 1, 158.032, 684.539)">
        <tspan x="-2.886" y="4.524" font-family="HelveticaNeue-Light" font-size="12">x</tspan>
      </text>
    </g>
    <g>
      <g>
        <path d="M106.799,656.72 L106.799,639.961" fill-opacity="0" stroke="#000000" stroke-width="0.5"/>
        <path d="M108.299,639.961 L106.799,635.961 L105.299,639.961 M106.799,639.961 L106.799,635.961" fill-opacity="0" stroke="#000000" stroke-width="0.5" stroke-opacity="1"/>
      </g>
      <text fill="#000000" transform="matrix(1, 0, -0, 1, 98.228, 645.591)">
        <tspan x="-2.778" y="4.524" font-family="HelveticaNeue-Light" font-size="12">y</tspan>
      </text>
    </g>
  </g>
  <defs/>
</svg>
